<?xml version="1.0" ?><svg enable-background="new 0 0 24 24" id="Layer_1" version="1.1" viewBox="0 0 24 24" xml:space="preserve" xmlns="http://www.w3.org/2000/svg" xmlns:xlink="http://www.w3.org/1999/xlink"><g><path d="M12.0000525,20.5   c-2.5,0-5.9999995-2.5-5.9998775-6s1.4998779-5,1.4998779-5c-3.4989014-3.9987183-2.0023193-7.9974365-2.0013428-8   c-0.9732056,0.6681519-1.927124,1.9690552-2.4986572,2.9994507c-0.9576416,1.7266235-1.0562744,4.3317871,0.5,9.0005493   c0,0-2-0.5-2.651001-5.3127441C0.6226115,9.0876465,0.5000529,10.0293579,0.5000529,11   c0,0.9784546,0.1294556,1.9708252,0.5,2.8299561c0.307251,0.7124634,0.8129883,1.7578125,1.5,2.1700439   c0,0-1.3222494-0.7185669-2.0001059-1c1.6460571,4.3375854,6.5853109,7.5,11.5001049,7.5s9.8526697-3.1624146,11.4987268-7.5   c-0.6778564,0.2814331-1.9987259,1-1.9987259,1c0.6870117-0.4122314,1.192749-1.4575806,1.5-2.1700439   c0.3705444-0.8591309,0.5-1.8515015,0.5-2.8299561c0-0.9706421-0.1225586-1.9123535-0.348999-2.8127441   C22.5000534,13,20.5000534,13.5,20.5000534,13.5c1.5562744-4.6687622,1.4576416-7.2739258,0.5-9.0005493   C20.4285202,3.4690552,19.4746017,2.1681519,18.5013962,1.5c0.0009766,0.0025635,1.4975586,4.0012817-2.0013428,8   c0,0,1.4997559,1.5,1.4998779,5S14.5000525,20.5,12.0000525,20.5z" fill="none" stroke="#303C42" stroke-linecap="round" stroke-linejoin="round" stroke-miterlimit="10"/><path d="   M12.0000525,14.4999971c-1,0.5-3.5004988,0.5000029-3.5004988,0.5000029s2.5004988-0.0000029,3.5004988,0.4999971" fill="none" stroke="#303C42" stroke-linecap="round" stroke-linejoin="round" stroke-miterlimit="10"/><path d="M12.0000534,14.5   c0.999999,0.5,3.5004988,0.5,3.5004988,0.5s-2.5004997,0-3.5004988,0.5" fill="none" stroke="#303C42" stroke-linecap="round" stroke-linejoin="round" stroke-miterlimit="10"/><line fill="none" stroke="#303C42" stroke-linecap="round" stroke-linejoin="round" stroke-miterlimit="10" x1="10.0000525" x2="14.0000525" y1="12.5" y2="17.5"/><line fill="none" stroke="#303C42" stroke-linecap="round" stroke-linejoin="round" stroke-miterlimit="10" x1="10.0000525" x2="14.0000525" y1="17.5" y2="12.5"/><path d="   M11.8278589,15.4234886c-0.1299143,3.7376614-0.2909641,4.8567905-0.322361,5.0456772" fill="none" stroke="#303C42" stroke-linecap="round" stroke-linejoin="round" stroke-miterlimit="10"/><path d="   M12.1444454,14.5653896C12.0631142,11.8696442,12.0000525,8.0046139,12.0000525,2.5   c0,5.5041704-0.0630503,9.3690205-0.144372,12.0647373" fill="none" stroke="#303C42" stroke-linecap="round" stroke-linejoin="round" stroke-miterlimit="10"/><path d="   M12.4946079,20.4691658c-0.031395-0.1888771-0.1924305-1.3079052-0.3223419-5.0451269" fill="none" stroke="#303C42" stroke-linecap="round" stroke-linejoin="round" stroke-miterlimit="10"/></g><g/><g/><g/><g/><g/><g/><g/><g/><g/><g/><g/><g/><g/><g/><g/></svg>